<mxfile host="app.diagrams.net" modified="2021-02-04T23:36:35.359Z" agent="5.0 (Windows NT 10.0; Win64; x64) AppleWebKit/537.36 (KHTML, like Gecko) Chrome/88.0.4324.104 Safari/537.36" etag="OqbaJ_GlxuA7MrKJEURQ" version="14.2.9" type="github">
  <diagram id="YVNop-HKg0mGTQ9UtPhP" name="Page-1">
    <mxGraphModel dx="1182" dy="707" grid="1" gridSize="10" guides="1" tooltips="1" connect="1" arrows="1" fold="1" page="1" pageScale="1" pageWidth="827" pageHeight="1169" math="0" shadow="0">
      <root>
        <mxCell id="0" />
        <mxCell id="1" parent="0" />
        <mxCell id="P5J0pzsNAGjrwa9tXCtl-293" value="" style="rounded=0;whiteSpace=wrap;html=1;" vertex="1" parent="1">
          <mxGeometry y="1230" width="830" height="410" as="geometry" />
        </mxCell>
        <mxCell id="P5J0pzsNAGjrwa9tXCtl-292" value="" style="rounded=0;whiteSpace=wrap;html=1;" vertex="1" parent="1">
          <mxGeometry y="410" width="830" height="410" as="geometry" />
        </mxCell>
        <mxCell id="P5J0pzsNAGjrwa9tXCtl-225" value="" style="rounded=0;whiteSpace=wrap;html=1;" vertex="1" parent="1">
          <mxGeometry y="820" width="830" height="410" as="geometry" />
        </mxCell>
        <mxCell id="P5J0pzsNAGjrwa9tXCtl-123" value="" style="rounded=0;whiteSpace=wrap;html=1;" vertex="1" parent="1">
          <mxGeometry width="830" height="410" as="geometry" />
        </mxCell>
        <mxCell id="P5J0pzsNAGjrwa9tXCtl-4" value="&lt;span style=&quot;font-size: 13px&quot;&gt;&lt;b&gt;&lt;font color=&quot;#b3b3b3&quot;&gt;&amp;nbsp;Tapahtuman nimi....&lt;/font&gt;&lt;/b&gt;&lt;/span&gt;" style="rounded=0;whiteSpace=wrap;html=1;align=left;" vertex="1" parent="1">
          <mxGeometry x="70" y="100" width="640" height="30" as="geometry" />
        </mxCell>
        <mxCell id="P5J0pzsNAGjrwa9tXCtl-6" value="&lt;b&gt;Tapahtuma&lt;/b&gt;" style="rounded=0;whiteSpace=wrap;html=1;align=left;fillColor=#e1d5e7;strokeColor=#9673a6;" vertex="1" parent="1">
          <mxGeometry x="70" y="150" width="120" height="30" as="geometry" />
        </mxCell>
        <mxCell id="P5J0pzsNAGjrwa9tXCtl-14" value="&lt;b&gt;Kaupunki&lt;/b&gt;" style="rounded=0;whiteSpace=wrap;html=1;align=left;fillColor=#e1d5e7;strokeColor=#9673a6;" vertex="1" parent="1">
          <mxGeometry x="190" y="150" width="90" height="30" as="geometry" />
        </mxCell>
        <mxCell id="P5J0pzsNAGjrwa9tXCtl-15" value="&lt;b&gt;Tapahtumapaikka&lt;/b&gt;" style="rounded=0;whiteSpace=wrap;html=1;align=left;fillColor=#e1d5e7;strokeColor=#9673a6;" vertex="1" parent="1">
          <mxGeometry x="280" y="150" width="120" height="30" as="geometry" />
        </mxCell>
        <mxCell id="P5J0pzsNAGjrwa9tXCtl-16" value="&lt;b&gt;Päivämäärä&lt;/b&gt;" style="rounded=0;whiteSpace=wrap;html=1;align=left;fillColor=#e1d5e7;strokeColor=#9673a6;" vertex="1" parent="1">
          <mxGeometry x="400" y="150" width="120" height="30" as="geometry" />
        </mxCell>
        <mxCell id="P5J0pzsNAGjrwa9tXCtl-19" value="&lt;span style=&quot;font-weight: normal&quot;&gt;Tavastia&lt;/span&gt;" style="rounded=0;whiteSpace=wrap;html=1;align=center;fontStyle=1" vertex="1" parent="1">
          <mxGeometry x="280" y="180" width="140" height="30" as="geometry" />
        </mxCell>
        <mxCell id="P5J0pzsNAGjrwa9tXCtl-20" value="&lt;span style=&quot;font-weight: normal&quot;&gt;15.05.2021 18:00&lt;/span&gt;" style="rounded=0;whiteSpace=wrap;html=1;align=left;fontStyle=1;fillColor=#fff2cc;strokeColor=#d6b656;" vertex="1" parent="1">
          <mxGeometry x="400" y="180" width="120" height="30" as="geometry" />
        </mxCell>
        <mxCell id="P5J0pzsNAGjrwa9tXCtl-23" value="&lt;span style=&quot;font-weight: normal&quot;&gt;Donna&lt;/span&gt;" style="rounded=0;whiteSpace=wrap;html=1;align=left;fontStyle=1;fillColor=#fff2cc;strokeColor=#d6b656;" vertex="1" parent="1">
          <mxGeometry x="280" y="210" width="120" height="30" as="geometry" />
        </mxCell>
        <mxCell id="P5J0pzsNAGjrwa9tXCtl-24" value="&lt;span style=&quot;font-weight: 400&quot;&gt;20.07.2021 15:00&lt;/span&gt;" style="rounded=0;whiteSpace=wrap;html=1;align=left;fontStyle=1;fillColor=#fff2cc;strokeColor=#d6b656;" vertex="1" parent="1">
          <mxGeometry x="400" y="210" width="120" height="30" as="geometry" />
        </mxCell>
        <mxCell id="P5J0pzsNAGjrwa9tXCtl-26" value="Helsinki" style="rounded=0;whiteSpace=wrap;html=1;align=left;fillColor=#fff2cc;strokeColor=#d6b656;" vertex="1" parent="1">
          <mxGeometry x="190" y="240" width="90" height="30" as="geometry" />
        </mxCell>
        <mxCell id="P5J0pzsNAGjrwa9tXCtl-27" value="Hartwall Arena" style="rounded=0;whiteSpace=wrap;html=1;align=left;fillColor=#fff2cc;strokeColor=#d6b656;" vertex="1" parent="1">
          <mxGeometry x="280" y="240" width="120" height="30" as="geometry" />
        </mxCell>
        <mxCell id="P5J0pzsNAGjrwa9tXCtl-28" value="&lt;span style=&quot;font-weight: normal&quot;&gt;19.12.2021 09:00&lt;/span&gt;" style="rounded=0;whiteSpace=wrap;html=1;align=left;fontStyle=1;fillColor=#fff2cc;strokeColor=#d6b656;" vertex="1" parent="1">
          <mxGeometry x="400" y="240" width="120" height="30" as="geometry" />
        </mxCell>
        <mxCell id="P5J0pzsNAGjrwa9tXCtl-31" value="Pannuhuone" style="rounded=0;whiteSpace=wrap;html=1;align=left;fillColor=#fff2cc;strokeColor=#d6b656;" vertex="1" parent="1">
          <mxGeometry x="280" y="270" width="120" height="30" as="geometry" />
        </mxCell>
        <mxCell id="P5J0pzsNAGjrwa9tXCtl-32" value="&lt;span style=&quot;font-weight: normal&quot;&gt;03.02.2021 12:00&lt;/span&gt;" style="rounded=0;whiteSpace=wrap;html=1;align=left;fontStyle=1;fillColor=#fff2cc;strokeColor=#d6b656;" vertex="1" parent="1">
          <mxGeometry x="400" y="270" width="120" height="30" as="geometry" />
        </mxCell>
        <mxCell id="P5J0pzsNAGjrwa9tXCtl-34" value="Kotka" style="rounded=0;whiteSpace=wrap;html=1;align=left;fillColor=#fff2cc;strokeColor=#d6b656;" vertex="1" parent="1">
          <mxGeometry x="190" y="300" width="90" height="30" as="geometry" />
        </mxCell>
        <mxCell id="P5J0pzsNAGjrwa9tXCtl-35" value="Seurahuone" style="rounded=0;whiteSpace=wrap;html=1;align=left;fillColor=#fff2cc;strokeColor=#d6b656;" vertex="1" parent="1">
          <mxGeometry x="280" y="300" width="120" height="30" as="geometry" />
        </mxCell>
        <mxCell id="P5J0pzsNAGjrwa9tXCtl-36" value="&lt;span style=&quot;font-weight: normal&quot;&gt;14.04.2021 14:00&lt;/span&gt;" style="rounded=0;whiteSpace=wrap;html=1;align=left;fontStyle=1;fillColor=#fff2cc;strokeColor=#d6b656;" vertex="1" parent="1">
          <mxGeometry x="400" y="300" width="120" height="30" as="geometry" />
        </mxCell>
        <mxCell id="P5J0pzsNAGjrwa9tXCtl-37" value="&lt;font style=&quot;font-size: 9px&quot;&gt;Myy&lt;/font&gt;" style="rounded=1;whiteSpace=wrap;html=1;fillColor=#dae8fc;strokeColor=#6c8ebf;" vertex="1" parent="1">
          <mxGeometry x="620" y="185" width="40" height="20" as="geometry" />
        </mxCell>
        <mxCell id="P5J0pzsNAGjrwa9tXCtl-38" value="&lt;font style=&quot;font-size: 9px&quot;&gt;Myy&lt;/font&gt;" style="rounded=1;whiteSpace=wrap;html=1;fillColor=#dae8fc;strokeColor=#6c8ebf;" vertex="1" parent="1">
          <mxGeometry x="620" y="215" width="40" height="20" as="geometry" />
        </mxCell>
        <mxCell id="P5J0pzsNAGjrwa9tXCtl-39" value="&lt;font style=&quot;font-size: 9px&quot;&gt;Myy&lt;/font&gt;" style="rounded=1;whiteSpace=wrap;html=1;fillColor=#dae8fc;strokeColor=#6c8ebf;" vertex="1" parent="1">
          <mxGeometry x="620" y="245" width="40" height="20" as="geometry" />
        </mxCell>
        <mxCell id="P5J0pzsNAGjrwa9tXCtl-40" value="&lt;font style=&quot;font-size: 9px&quot;&gt;Myy&lt;/font&gt;" style="rounded=1;whiteSpace=wrap;html=1;fillColor=#dae8fc;strokeColor=#6c8ebf;" vertex="1" parent="1">
          <mxGeometry x="620" y="275" width="40" height="20" as="geometry" />
        </mxCell>
        <mxCell id="P5J0pzsNAGjrwa9tXCtl-41" value="&lt;font style=&quot;font-size: 9px&quot;&gt;Myy&lt;/font&gt;" style="rounded=1;whiteSpace=wrap;html=1;fillColor=#dae8fc;strokeColor=#6c8ebf;" vertex="1" parent="1">
          <mxGeometry x="620" y="305" width="40" height="20" as="geometry" />
        </mxCell>
        <mxCell id="P5J0pzsNAGjrwa9tXCtl-47" value="&lt;span style=&quot;font-weight: normal&quot;&gt;Celine Dion&lt;/span&gt;" style="rounded=0;whiteSpace=wrap;html=1;align=left;fontStyle=1;fillColor=#fff2cc;strokeColor=#d6b656;" vertex="1" parent="1">
          <mxGeometry x="70" y="180" width="120" height="30" as="geometry" />
        </mxCell>
        <mxCell id="P5J0pzsNAGjrwa9tXCtl-48" value="Spice Girls" style="rounded=0;whiteSpace=wrap;html=1;align=left;fillColor=#fff2cc;strokeColor=#d6b656;" vertex="1" parent="1">
          <mxGeometry x="70" y="210" width="120" height="30" as="geometry" />
        </mxCell>
        <mxCell id="P5J0pzsNAGjrwa9tXCtl-49" value="Karri Koira" style="rounded=0;whiteSpace=wrap;html=1;align=left;fillColor=#fff2cc;strokeColor=#d6b656;" vertex="1" parent="1">
          <mxGeometry x="70" y="240" width="120" height="30" as="geometry" />
        </mxCell>
        <mxCell id="P5J0pzsNAGjrwa9tXCtl-50" value="Anna Puu" style="rounded=0;whiteSpace=wrap;html=1;align=left;fillColor=#fff2cc;strokeColor=#d6b656;" vertex="1" parent="1">
          <mxGeometry x="70" y="270" width="120" height="30" as="geometry" />
        </mxCell>
        <mxCell id="P5J0pzsNAGjrwa9tXCtl-51" value="Matti &amp;amp; Teppo" style="rounded=0;whiteSpace=wrap;html=1;align=left;fillColor=#fff2cc;strokeColor=#d6b656;" vertex="1" parent="1">
          <mxGeometry x="70" y="300" width="120" height="30" as="geometry" />
        </mxCell>
        <mxCell id="P5J0pzsNAGjrwa9tXCtl-52" value="Tampere" style="rounded=0;whiteSpace=wrap;html=1;align=left;fillColor=#fff2cc;strokeColor=#d6b656;" vertex="1" parent="1">
          <mxGeometry x="190" y="270" width="90" height="30" as="geometry" />
        </mxCell>
        <mxCell id="P5J0pzsNAGjrwa9tXCtl-53" value="Turku" style="rounded=0;whiteSpace=wrap;html=1;align=left;fillColor=#fff2cc;strokeColor=#d6b656;" vertex="1" parent="1">
          <mxGeometry x="190" y="210" width="90" height="30" as="geometry" />
        </mxCell>
        <mxCell id="P5J0pzsNAGjrwa9tXCtl-54" value="&lt;span style=&quot;font-weight: normal&quot;&gt;Helsinki&lt;/span&gt;" style="rounded=0;whiteSpace=wrap;html=1;align=left;fontStyle=1;fillColor=#fff2cc;strokeColor=#d6b656;" vertex="1" parent="1">
          <mxGeometry x="190" y="180" width="90" height="30" as="geometry" />
        </mxCell>
        <mxCell id="P5J0pzsNAGjrwa9tXCtl-55" value="&lt;span style=&quot;font-weight: normal&quot;&gt;Tavastia&lt;/span&gt;" style="rounded=0;whiteSpace=wrap;html=1;align=left;fontStyle=1;fillColor=#fff2cc;strokeColor=#d6b656;" vertex="1" parent="1">
          <mxGeometry x="280" y="180" width="120" height="30" as="geometry" />
        </mxCell>
        <mxCell id="P5J0pzsNAGjrwa9tXCtl-56" value="&lt;font style=&quot;font-size: 16px&quot;&gt;Etusivu&lt;/font&gt;" style="text;html=1;strokeColor=none;fillColor=none;align=left;verticalAlign=middle;whiteSpace=wrap;rounded=0;fontStyle=1" vertex="1" parent="1">
          <mxGeometry x="10" y="10" width="200" height="20" as="geometry" />
        </mxCell>
        <mxCell id="P5J0pzsNAGjrwa9tXCtl-57" value="&lt;font style=&quot;font-size: 13px&quot;&gt;Etsi&lt;/font&gt;" style="text;html=1;strokeColor=none;fillColor=none;align=left;verticalAlign=middle;whiteSpace=wrap;rounded=0;fontStyle=1" vertex="1" parent="1">
          <mxGeometry x="70" y="80" width="40" height="20" as="geometry" />
        </mxCell>
        <mxCell id="P5J0pzsNAGjrwa9tXCtl-59" value="&lt;b&gt;Lippuja&lt;/b&gt;" style="rounded=0;whiteSpace=wrap;html=1;align=left;fillColor=#e1d5e7;strokeColor=#9673a6;" vertex="1" parent="1">
          <mxGeometry x="520" y="150" width="90" height="30" as="geometry" />
        </mxCell>
        <mxCell id="P5J0pzsNAGjrwa9tXCtl-60" value="&lt;span style=&quot;font-weight: normal&quot;&gt;300 / 850&lt;/span&gt;" style="rounded=0;whiteSpace=wrap;html=1;align=left;fontStyle=1;fillColor=#fff2cc;strokeColor=#d6b656;" vertex="1" parent="1">
          <mxGeometry x="520" y="180" width="90" height="30" as="geometry" />
        </mxCell>
        <mxCell id="P5J0pzsNAGjrwa9tXCtl-61" value="&lt;span style=&quot;font-weight: normal&quot;&gt;100 / 200&lt;/span&gt;" style="rounded=0;whiteSpace=wrap;html=1;align=left;fontStyle=1;fillColor=#fff2cc;strokeColor=#d6b656;" vertex="1" parent="1">
          <mxGeometry x="520" y="210" width="90" height="30" as="geometry" />
        </mxCell>
        <mxCell id="P5J0pzsNAGjrwa9tXCtl-62" value="&lt;span style=&quot;font-weight: normal&quot;&gt;100 / 12 000&lt;/span&gt;" style="rounded=0;whiteSpace=wrap;html=1;align=left;fontStyle=1;fillColor=#fff2cc;strokeColor=#d6b656;" vertex="1" parent="1">
          <mxGeometry x="520" y="240" width="90" height="30" as="geometry" />
        </mxCell>
        <mxCell id="P5J0pzsNAGjrwa9tXCtl-63" value="&lt;span style=&quot;font-weight: normal&quot;&gt;350 / 1000&lt;/span&gt;" style="rounded=0;whiteSpace=wrap;html=1;align=left;fontStyle=1;fillColor=#fff2cc;strokeColor=#d6b656;" vertex="1" parent="1">
          <mxGeometry x="520" y="270" width="90" height="30" as="geometry" />
        </mxCell>
        <mxCell id="P5J0pzsNAGjrwa9tXCtl-64" value="&lt;span style=&quot;font-weight: normal&quot;&gt;100 / 3000&lt;/span&gt;" style="rounded=0;whiteSpace=wrap;html=1;align=left;fontStyle=1;fillColor=#fff2cc;strokeColor=#d6b656;" vertex="1" parent="1">
          <mxGeometry x="520" y="300" width="90" height="30" as="geometry" />
        </mxCell>
        <mxCell id="P5J0pzsNAGjrwa9tXCtl-66" value="&lt;font style=&quot;font-size: 9px&quot;&gt;Valitse&lt;/font&gt;" style="rounded=1;whiteSpace=wrap;html=1;fillColor=#dae8fc;strokeColor=#6c8ebf;" vertex="1" parent="1">
          <mxGeometry x="670" y="185" width="40" height="20" as="geometry" />
        </mxCell>
        <mxCell id="P5J0pzsNAGjrwa9tXCtl-67" value="&lt;font style=&quot;font-size: 9px&quot;&gt;Valitse&lt;/font&gt;" style="rounded=1;whiteSpace=wrap;html=1;fillColor=#dae8fc;strokeColor=#6c8ebf;" vertex="1" parent="1">
          <mxGeometry x="670" y="215" width="40" height="20" as="geometry" />
        </mxCell>
        <mxCell id="P5J0pzsNAGjrwa9tXCtl-68" value="&lt;font style=&quot;font-size: 9px&quot;&gt;Valitse&lt;/font&gt;" style="rounded=1;whiteSpace=wrap;html=1;fillColor=#dae8fc;strokeColor=#6c8ebf;" vertex="1" parent="1">
          <mxGeometry x="670" y="245" width="40" height="20" as="geometry" />
        </mxCell>
        <mxCell id="P5J0pzsNAGjrwa9tXCtl-69" value="&lt;font style=&quot;font-size: 9px&quot;&gt;Valitse&lt;/font&gt;" style="rounded=1;whiteSpace=wrap;html=1;fillColor=#dae8fc;strokeColor=#6c8ebf;" vertex="1" parent="1">
          <mxGeometry x="670" y="275" width="40" height="20" as="geometry" />
        </mxCell>
        <mxCell id="P5J0pzsNAGjrwa9tXCtl-70" value="&lt;font style=&quot;font-size: 9px&quot;&gt;Valitse&lt;/font&gt;" style="rounded=1;whiteSpace=wrap;html=1;fillColor=#dae8fc;strokeColor=#6c8ebf;" vertex="1" parent="1">
          <mxGeometry x="670" y="305" width="40" height="20" as="geometry" />
        </mxCell>
        <mxCell id="P5J0pzsNAGjrwa9tXCtl-73" value="Luo tapahtuma" style="rounded=0;whiteSpace=wrap;html=1;fillColor=#e1d5e7;strokeColor=#9673a6;fontStyle=1" vertex="1" parent="1">
          <mxGeometry x="70" y="360" width="120" height="30" as="geometry" />
        </mxCell>
        <mxCell id="P5J0pzsNAGjrwa9tXCtl-75" value="" style="endArrow=none;html=1;" edge="1" parent="1">
          <mxGeometry width="50" height="50" relative="1" as="geometry">
            <mxPoint y="410" as="sourcePoint" />
            <mxPoint x="830" y="410" as="targetPoint" />
          </mxGeometry>
        </mxCell>
        <mxCell id="P5J0pzsNAGjrwa9tXCtl-76" value="&lt;font style=&quot;font-size: 16px&quot;&gt;Myy lippuja&lt;/font&gt;" style="text;html=1;strokeColor=none;fillColor=none;align=left;verticalAlign=middle;whiteSpace=wrap;rounded=0;fontStyle=1" vertex="1" parent="1">
          <mxGeometry x="10" y="430" width="200" height="20" as="geometry" />
        </mxCell>
        <mxCell id="P5J0pzsNAGjrwa9tXCtl-78" value="&lt;b&gt;Tapahtuma&lt;/b&gt;" style="rounded=0;whiteSpace=wrap;html=1;align=left;fillColor=#e1d5e7;strokeColor=#9673a6;" vertex="1" parent="1">
          <mxGeometry x="70" y="500" width="120" height="30" as="geometry" />
        </mxCell>
        <mxCell id="P5J0pzsNAGjrwa9tXCtl-79" value="&lt;b&gt;Kaupunki&lt;/b&gt;" style="rounded=0;whiteSpace=wrap;html=1;align=left;fillColor=#e1d5e7;strokeColor=#9673a6;" vertex="1" parent="1">
          <mxGeometry x="190" y="500" width="90" height="30" as="geometry" />
        </mxCell>
        <mxCell id="P5J0pzsNAGjrwa9tXCtl-80" value="&lt;b&gt;Tapahtumapaikka&lt;/b&gt;" style="rounded=0;whiteSpace=wrap;html=1;align=left;fillColor=#e1d5e7;strokeColor=#9673a6;" vertex="1" parent="1">
          <mxGeometry x="280" y="500" width="120" height="30" as="geometry" />
        </mxCell>
        <mxCell id="P5J0pzsNAGjrwa9tXCtl-81" value="&lt;b&gt;Päivämäärä&lt;/b&gt;" style="rounded=0;whiteSpace=wrap;html=1;align=left;fillColor=#e1d5e7;strokeColor=#9673a6;" vertex="1" parent="1">
          <mxGeometry x="400" y="500" width="120" height="30" as="geometry" />
        </mxCell>
        <mxCell id="P5J0pzsNAGjrwa9tXCtl-82" value="&lt;span style=&quot;font-weight: normal&quot;&gt;Tavastia&lt;/span&gt;" style="rounded=0;whiteSpace=wrap;html=1;align=center;fontStyle=1" vertex="1" parent="1">
          <mxGeometry x="280" y="530" width="140" height="30" as="geometry" />
        </mxCell>
        <mxCell id="P5J0pzsNAGjrwa9tXCtl-83" value="&lt;span style=&quot;font-weight: normal&quot;&gt;15.05.2021 18:00&lt;/span&gt;" style="rounded=0;whiteSpace=wrap;html=1;align=left;fontStyle=1;fillColor=#fff2cc;strokeColor=#d6b656;" vertex="1" parent="1">
          <mxGeometry x="400" y="530" width="120" height="30" as="geometry" />
        </mxCell>
        <mxCell id="P5J0pzsNAGjrwa9tXCtl-99" value="&lt;span style=&quot;font-weight: normal&quot;&gt;Celine Dion&lt;/span&gt;" style="rounded=0;whiteSpace=wrap;html=1;align=left;fontStyle=1;fillColor=#fff2cc;strokeColor=#d6b656;" vertex="1" parent="1">
          <mxGeometry x="70" y="530" width="120" height="30" as="geometry" />
        </mxCell>
        <mxCell id="P5J0pzsNAGjrwa9tXCtl-106" value="&lt;span style=&quot;font-weight: normal&quot;&gt;Helsinki&lt;/span&gt;" style="rounded=0;whiteSpace=wrap;html=1;align=left;fontStyle=1;fillColor=#fff2cc;strokeColor=#d6b656;" vertex="1" parent="1">
          <mxGeometry x="190" y="530" width="90" height="30" as="geometry" />
        </mxCell>
        <mxCell id="P5J0pzsNAGjrwa9tXCtl-107" value="&lt;span style=&quot;font-weight: normal&quot;&gt;Tavastia&lt;/span&gt;" style="rounded=0;whiteSpace=wrap;html=1;align=left;fontStyle=1;fillColor=#fff2cc;strokeColor=#d6b656;" vertex="1" parent="1">
          <mxGeometry x="280" y="530" width="120" height="30" as="geometry" />
        </mxCell>
        <mxCell id="P5J0pzsNAGjrwa9tXCtl-108" value="&lt;font style=&quot;font-size: 13px&quot;&gt;Tapahtuma&lt;/font&gt;" style="text;html=1;strokeColor=none;fillColor=none;align=left;verticalAlign=middle;whiteSpace=wrap;rounded=0;fontStyle=1" vertex="1" parent="1">
          <mxGeometry x="70" y="477" width="40" height="20" as="geometry" />
        </mxCell>
        <mxCell id="P5J0pzsNAGjrwa9tXCtl-109" value="&lt;b&gt;Lippuja&lt;/b&gt;" style="rounded=0;whiteSpace=wrap;html=1;align=left;fillColor=#e1d5e7;strokeColor=#9673a6;" vertex="1" parent="1">
          <mxGeometry x="520" y="500" width="90" height="30" as="geometry" />
        </mxCell>
        <mxCell id="P5J0pzsNAGjrwa9tXCtl-110" value="&lt;span style=&quot;font-weight: normal&quot;&gt;300 / 850&lt;/span&gt;" style="rounded=0;whiteSpace=wrap;html=1;align=left;fontStyle=1;fillColor=#fff2cc;strokeColor=#d6b656;" vertex="1" parent="1">
          <mxGeometry x="520" y="530" width="90" height="30" as="geometry" />
        </mxCell>
        <mxCell id="P5J0pzsNAGjrwa9tXCtl-121" value="Tulosta lippu" style="rounded=0;whiteSpace=wrap;html=1;fillColor=#e1d5e7;strokeColor=#9673a6;fontStyle=1" vertex="1" parent="1">
          <mxGeometry x="210" y="360" width="120" height="30" as="geometry" />
        </mxCell>
        <mxCell id="P5J0pzsNAGjrwa9tXCtl-122" value="Takaisin" style="rounded=0;whiteSpace=wrap;html=1;fillColor=#e1d5e7;strokeColor=#9673a6;fontStyle=1" vertex="1" parent="1">
          <mxGeometry x="70" y="780" width="120" height="30" as="geometry" />
        </mxCell>
        <mxCell id="P5J0pzsNAGjrwa9tXCtl-125" value="Aikuinen" style="text;html=1;strokeColor=none;fillColor=none;align=left;verticalAlign=middle;whiteSpace=wrap;rounded=0;fontStyle=1" vertex="1" parent="1">
          <mxGeometry x="70" y="585" width="80" height="30" as="geometry" />
        </mxCell>
        <mxCell id="P5J0pzsNAGjrwa9tXCtl-126" value="Lapsi" style="text;html=1;strokeColor=none;fillColor=none;align=left;verticalAlign=middle;whiteSpace=wrap;rounded=0;fontStyle=1" vertex="1" parent="1">
          <mxGeometry x="70" y="615" width="80" height="30" as="geometry" />
        </mxCell>
        <mxCell id="P5J0pzsNAGjrwa9tXCtl-127" value="Opiskelija" style="text;html=1;strokeColor=none;fillColor=none;align=left;verticalAlign=middle;whiteSpace=wrap;rounded=0;fontStyle=1" vertex="1" parent="1">
          <mxGeometry x="70" y="645" width="80" height="30" as="geometry" />
        </mxCell>
        <mxCell id="P5J0pzsNAGjrwa9tXCtl-128" value="20.00€" style="text;html=1;strokeColor=none;fillColor=none;align=center;verticalAlign=middle;whiteSpace=wrap;rounded=0;" vertex="1" parent="1">
          <mxGeometry x="170" y="590" width="40" height="20" as="geometry" />
        </mxCell>
        <mxCell id="P5J0pzsNAGjrwa9tXCtl-129" value="10.00€" style="text;html=1;strokeColor=none;fillColor=none;align=center;verticalAlign=middle;whiteSpace=wrap;rounded=0;" vertex="1" parent="1">
          <mxGeometry x="170" y="620" width="40" height="20" as="geometry" />
        </mxCell>
        <mxCell id="P5J0pzsNAGjrwa9tXCtl-130" value="15.00€" style="text;html=1;strokeColor=none;fillColor=none;align=center;verticalAlign=middle;whiteSpace=wrap;rounded=0;" vertex="1" parent="1">
          <mxGeometry x="170" y="650" width="40" height="20" as="geometry" />
        </mxCell>
        <mxCell id="P5J0pzsNAGjrwa9tXCtl-131" value="2" style="rounded=1;whiteSpace=wrap;html=1;" vertex="1" parent="1">
          <mxGeometry x="220" y="590" width="40" height="20" as="geometry" />
        </mxCell>
        <mxCell id="P5J0pzsNAGjrwa9tXCtl-132" value="1" style="rounded=1;whiteSpace=wrap;html=1;" vertex="1" parent="1">
          <mxGeometry x="220" y="620" width="40" height="20" as="geometry" />
        </mxCell>
        <mxCell id="P5J0pzsNAGjrwa9tXCtl-133" value="0" style="rounded=1;whiteSpace=wrap;html=1;" vertex="1" parent="1">
          <mxGeometry x="220" y="650" width="40" height="20" as="geometry" />
        </mxCell>
        <mxCell id="P5J0pzsNAGjrwa9tXCtl-138" value="" style="shape=doubleArrow;whiteSpace=wrap;html=1;rotation=-90;" vertex="1" parent="1">
          <mxGeometry x="248" y="595" width="10" height="10" as="geometry" />
        </mxCell>
        <mxCell id="P5J0pzsNAGjrwa9tXCtl-141" value="" style="shape=doubleArrow;whiteSpace=wrap;html=1;rotation=-90;" vertex="1" parent="1">
          <mxGeometry x="248" y="625" width="10" height="10" as="geometry" />
        </mxCell>
        <mxCell id="P5J0pzsNAGjrwa9tXCtl-142" value="" style="shape=doubleArrow;whiteSpace=wrap;html=1;rotation=-90;" vertex="1" parent="1">
          <mxGeometry x="248" y="655" width="10" height="10" as="geometry" />
        </mxCell>
        <mxCell id="P5J0pzsNAGjrwa9tXCtl-144" value="Myy" style="rounded=0;whiteSpace=wrap;html=1;fillColor=#e1d5e7;strokeColor=#9673a6;fontStyle=1" vertex="1" parent="1">
          <mxGeometry x="640" y="780" width="120" height="30" as="geometry" />
        </mxCell>
        <mxCell id="P5J0pzsNAGjrwa9tXCtl-145" value="Yhteensä:" style="text;html=1;strokeColor=none;fillColor=none;align=left;verticalAlign=middle;whiteSpace=wrap;rounded=0;fontStyle=1" vertex="1" parent="1">
          <mxGeometry x="70" y="690" width="80" height="30" as="geometry" />
        </mxCell>
        <mxCell id="P5J0pzsNAGjrwa9tXCtl-146" value="50.00€" style="text;html=1;strokeColor=none;fillColor=none;align=center;verticalAlign=middle;whiteSpace=wrap;rounded=0;" vertex="1" parent="1">
          <mxGeometry x="170" y="695" width="40" height="20" as="geometry" />
        </mxCell>
        <mxCell id="P5J0pzsNAGjrwa9tXCtl-180" value="" style="endArrow=none;html=1;" edge="1" parent="1">
          <mxGeometry width="50" height="50" relative="1" as="geometry">
            <mxPoint y="820" as="sourcePoint" />
            <mxPoint x="830" y="820" as="targetPoint" />
          </mxGeometry>
        </mxCell>
        <mxCell id="P5J0pzsNAGjrwa9tXCtl-181" value="&lt;font style=&quot;font-size: 16px&quot;&gt;Myy lippuja #2&lt;/font&gt;" style="text;html=1;strokeColor=none;fillColor=none;align=left;verticalAlign=middle;whiteSpace=wrap;rounded=0;fontStyle=1" vertex="1" parent="1">
          <mxGeometry x="10" y="840" width="200" height="20" as="geometry" />
        </mxCell>
        <mxCell id="P5J0pzsNAGjrwa9tXCtl-182" value="&lt;b&gt;Tapahtuma&lt;/b&gt;" style="rounded=0;whiteSpace=wrap;html=1;align=left;fillColor=#e1d5e7;strokeColor=#9673a6;" vertex="1" parent="1">
          <mxGeometry x="70" y="910" width="120" height="30" as="geometry" />
        </mxCell>
        <mxCell id="P5J0pzsNAGjrwa9tXCtl-183" value="&lt;b&gt;Lippu&lt;/b&gt;" style="rounded=0;whiteSpace=wrap;html=1;align=left;fillColor=#e1d5e7;strokeColor=#9673a6;" vertex="1" parent="1">
          <mxGeometry x="190" y="910" width="90" height="30" as="geometry" />
        </mxCell>
        <mxCell id="P5J0pzsNAGjrwa9tXCtl-185" value="&lt;b&gt;Koodi&lt;/b&gt;" style="rounded=0;whiteSpace=wrap;html=1;align=left;fillColor=#e1d5e7;strokeColor=#9673a6;" vertex="1" parent="1">
          <mxGeometry x="280" y="910" width="120" height="30" as="geometry" />
        </mxCell>
        <mxCell id="P5J0pzsNAGjrwa9tXCtl-187" value="&lt;span style=&quot;font-weight: normal&quot;&gt;15092fdd&lt;/span&gt;" style="rounded=0;whiteSpace=wrap;html=1;align=left;fontStyle=1;fillColor=#fff2cc;strokeColor=#d6b656;" vertex="1" parent="1">
          <mxGeometry x="280" y="940" width="120" height="30" as="geometry" />
        </mxCell>
        <mxCell id="P5J0pzsNAGjrwa9tXCtl-188" value="&lt;span style=&quot;font-weight: normal&quot;&gt;Celine Dion&lt;/span&gt;" style="rounded=0;whiteSpace=wrap;html=1;align=left;fontStyle=1;fillColor=#fff2cc;strokeColor=#d6b656;" vertex="1" parent="1">
          <mxGeometry x="70" y="940" width="120" height="30" as="geometry" />
        </mxCell>
        <mxCell id="P5J0pzsNAGjrwa9tXCtl-189" value="&lt;span style=&quot;font-weight: normal&quot;&gt;Aikuinen&lt;/span&gt;" style="rounded=0;whiteSpace=wrap;html=1;align=left;fontStyle=1;fillColor=#fff2cc;strokeColor=#d6b656;" vertex="1" parent="1">
          <mxGeometry x="190" y="940" width="90" height="30" as="geometry" />
        </mxCell>
        <mxCell id="P5J0pzsNAGjrwa9tXCtl-191" value="&lt;font style=&quot;font-size: 13px&quot;&gt;Myyntitapahtuma: 23425235&lt;/font&gt;" style="text;html=1;strokeColor=none;fillColor=none;align=left;verticalAlign=middle;whiteSpace=wrap;rounded=0;fontStyle=1" vertex="1" parent="1">
          <mxGeometry x="70" y="887" width="250" height="20" as="geometry" />
        </mxCell>
        <mxCell id="P5J0pzsNAGjrwa9tXCtl-194" value="Takaisin" style="rounded=0;whiteSpace=wrap;html=1;fillColor=#e1d5e7;strokeColor=#9673a6;fontStyle=1" vertex="1" parent="1">
          <mxGeometry x="70" y="1190" width="120" height="30" as="geometry" />
        </mxCell>
        <mxCell id="P5J0pzsNAGjrwa9tXCtl-207" value="Tulosta liput" style="rounded=0;whiteSpace=wrap;html=1;fillColor=#e1d5e7;strokeColor=#9673a6;fontStyle=1" vertex="1" parent="1">
          <mxGeometry x="400" y="1100" width="120" height="30" as="geometry" />
        </mxCell>
        <mxCell id="P5J0pzsNAGjrwa9tXCtl-210" value="&lt;span style=&quot;font-weight: normal&quot;&gt;3q278ru8&lt;/span&gt;" style="rounded=0;whiteSpace=wrap;html=1;align=left;fontStyle=1;fillColor=#fff2cc;strokeColor=#d6b656;" vertex="1" parent="1">
          <mxGeometry x="280" y="970" width="120" height="30" as="geometry" />
        </mxCell>
        <mxCell id="P5J0pzsNAGjrwa9tXCtl-211" value="&lt;span style=&quot;font-weight: normal&quot;&gt;Celine Dion&lt;/span&gt;" style="rounded=0;whiteSpace=wrap;html=1;align=left;fontStyle=1;fillColor=#fff2cc;strokeColor=#d6b656;" vertex="1" parent="1">
          <mxGeometry x="70" y="970" width="120" height="30" as="geometry" />
        </mxCell>
        <mxCell id="P5J0pzsNAGjrwa9tXCtl-212" value="&lt;span style=&quot;font-weight: normal&quot;&gt;Aikuinen&lt;/span&gt;" style="rounded=0;whiteSpace=wrap;html=1;align=left;fontStyle=1;fillColor=#fff2cc;strokeColor=#d6b656;" vertex="1" parent="1">
          <mxGeometry x="190" y="970" width="90" height="30" as="geometry" />
        </mxCell>
        <mxCell id="P5J0pzsNAGjrwa9tXCtl-214" value="&lt;span style=&quot;font-weight: normal&quot;&gt;ef87ujs8f&lt;/span&gt;" style="rounded=0;whiteSpace=wrap;html=1;align=left;fontStyle=1;fillColor=#fff2cc;strokeColor=#d6b656;" vertex="1" parent="1">
          <mxGeometry x="280" y="1000" width="120" height="30" as="geometry" />
        </mxCell>
        <mxCell id="P5J0pzsNAGjrwa9tXCtl-215" value="&lt;span style=&quot;font-weight: normal&quot;&gt;Celine Dion&lt;/span&gt;" style="rounded=0;whiteSpace=wrap;html=1;align=left;fontStyle=1;fillColor=#fff2cc;strokeColor=#d6b656;" vertex="1" parent="1">
          <mxGeometry x="70" y="1000" width="120" height="30" as="geometry" />
        </mxCell>
        <mxCell id="P5J0pzsNAGjrwa9tXCtl-216" value="&lt;span style=&quot;font-weight: normal&quot;&gt;Lapsi&lt;/span&gt;" style="rounded=0;whiteSpace=wrap;html=1;align=left;fontStyle=1;fillColor=#fff2cc;strokeColor=#d6b656;" vertex="1" parent="1">
          <mxGeometry x="190" y="1000" width="90" height="30" as="geometry" />
        </mxCell>
        <mxCell id="P5J0pzsNAGjrwa9tXCtl-218" value="&lt;span style=&quot;&quot;&gt;Yhteensä&lt;/span&gt;" style="rounded=0;whiteSpace=wrap;html=1;align=left;fontStyle=1;fillColor=#fff2cc;strokeColor=#d6b656;" vertex="1" parent="1">
          <mxGeometry x="280" y="1050" width="120" height="30" as="geometry" />
        </mxCell>
        <mxCell id="P5J0pzsNAGjrwa9tXCtl-219" value="&lt;span style=&quot;font-weight: normal&quot;&gt;50.00€&lt;/span&gt;" style="rounded=0;whiteSpace=wrap;html=1;align=left;fontStyle=1;fillColor=#fff2cc;strokeColor=#d6b656;" vertex="1" parent="1">
          <mxGeometry x="400" y="1050" width="120" height="30" as="geometry" />
        </mxCell>
        <mxCell id="P5J0pzsNAGjrwa9tXCtl-220" value="&lt;b&gt;Hinta&lt;/b&gt;" style="rounded=0;whiteSpace=wrap;html=1;align=left;fillColor=#e1d5e7;strokeColor=#9673a6;" vertex="1" parent="1">
          <mxGeometry x="400" y="910" width="120" height="30" as="geometry" />
        </mxCell>
        <mxCell id="P5J0pzsNAGjrwa9tXCtl-221" value="&lt;span style=&quot;font-weight: normal&quot;&gt;20.00€&lt;/span&gt;" style="rounded=0;whiteSpace=wrap;html=1;align=left;fontStyle=1;fillColor=#fff2cc;strokeColor=#d6b656;" vertex="1" parent="1">
          <mxGeometry x="400" y="940" width="120" height="30" as="geometry" />
        </mxCell>
        <mxCell id="P5J0pzsNAGjrwa9tXCtl-222" value="&lt;span style=&quot;font-weight: normal&quot;&gt;20.00€&lt;/span&gt;" style="rounded=0;whiteSpace=wrap;html=1;align=left;fontStyle=1;fillColor=#fff2cc;strokeColor=#d6b656;" vertex="1" parent="1">
          <mxGeometry x="400" y="970" width="120" height="30" as="geometry" />
        </mxCell>
        <mxCell id="P5J0pzsNAGjrwa9tXCtl-223" value="&lt;span style=&quot;font-weight: normal&quot;&gt;10.00€&lt;/span&gt;" style="rounded=0;whiteSpace=wrap;html=1;align=left;fontStyle=1;fillColor=#fff2cc;strokeColor=#d6b656;" vertex="1" parent="1">
          <mxGeometry x="400" y="1000" width="120" height="30" as="geometry" />
        </mxCell>
        <mxCell id="P5J0pzsNAGjrwa9tXCtl-227" value="" style="endArrow=none;html=1;" edge="1" parent="1">
          <mxGeometry width="50" height="50" relative="1" as="geometry">
            <mxPoint y="1230" as="sourcePoint" />
            <mxPoint x="830" y="1230" as="targetPoint" />
          </mxGeometry>
        </mxCell>
        <mxCell id="P5J0pzsNAGjrwa9tXCtl-228" value="&lt;font style=&quot;font-size: 16px&quot;&gt;Luo tapahtuma&lt;/font&gt;" style="text;html=1;strokeColor=none;fillColor=none;align=left;verticalAlign=middle;whiteSpace=wrap;rounded=0;fontStyle=1" vertex="1" parent="1">
          <mxGeometry x="10" y="1250" width="200" height="20" as="geometry" />
        </mxCell>
        <mxCell id="P5J0pzsNAGjrwa9tXCtl-229" value="&lt;b&gt;Tapahtuman nimi:&lt;/b&gt;" style="rounded=0;whiteSpace=wrap;html=1;align=left;fillColor=#e1d5e7;strokeColor=#9673a6;" vertex="1" parent="1">
          <mxGeometry x="70" y="1320" width="120" height="30" as="geometry" />
        </mxCell>
        <mxCell id="P5J0pzsNAGjrwa9tXCtl-230" value="&lt;b&gt;Kaupunki:&lt;/b&gt;" style="rounded=0;whiteSpace=wrap;html=1;align=left;fillColor=#e1d5e7;strokeColor=#9673a6;" vertex="1" parent="1">
          <mxGeometry x="70" y="1350" width="120" height="30" as="geometry" />
        </mxCell>
        <mxCell id="P5J0pzsNAGjrwa9tXCtl-231" value="&lt;b&gt;Tapahtumapaikka:&lt;/b&gt;" style="rounded=0;whiteSpace=wrap;html=1;align=left;fillColor=#e1d5e7;strokeColor=#9673a6;" vertex="1" parent="1">
          <mxGeometry x="70" y="1380" width="120" height="30" as="geometry" />
        </mxCell>
        <mxCell id="P5J0pzsNAGjrwa9tXCtl-235" value="&lt;font style=&quot;font-size: 13px&quot;&gt;Tapahtuma&lt;/font&gt;" style="text;html=1;strokeColor=none;fillColor=none;align=left;verticalAlign=middle;whiteSpace=wrap;rounded=0;fontStyle=1" vertex="1" parent="1">
          <mxGeometry x="70" y="1297" width="160" height="20" as="geometry" />
        </mxCell>
        <mxCell id="P5J0pzsNAGjrwa9tXCtl-236" value="Takaisin" style="rounded=0;whiteSpace=wrap;html=1;fillColor=#e1d5e7;strokeColor=#9673a6;fontStyle=1" vertex="1" parent="1">
          <mxGeometry x="70" y="1600" width="120" height="30" as="geometry" />
        </mxCell>
        <mxCell id="P5J0pzsNAGjrwa9tXCtl-237" value="Luo tapahtuma" style="rounded=0;whiteSpace=wrap;html=1;fillColor=#e1d5e7;strokeColor=#9673a6;fontStyle=1" vertex="1" parent="1">
          <mxGeometry x="585" y="1600" width="120" height="30" as="geometry" />
        </mxCell>
        <mxCell id="P5J0pzsNAGjrwa9tXCtl-250" value="&lt;b&gt;Päivämäärä:&lt;/b&gt;" style="rounded=0;whiteSpace=wrap;html=1;align=left;fillColor=#e1d5e7;strokeColor=#9673a6;" vertex="1" parent="1">
          <mxGeometry x="70" y="1410" width="120" height="30" as="geometry" />
        </mxCell>
        <mxCell id="P5J0pzsNAGjrwa9tXCtl-251" value="&lt;b&gt;Aika:&lt;/b&gt;" style="rounded=0;whiteSpace=wrap;html=1;align=left;fillColor=#e1d5e7;strokeColor=#9673a6;" vertex="1" parent="1">
          <mxGeometry x="70" y="1440" width="120" height="30" as="geometry" />
        </mxCell>
        <mxCell id="P5J0pzsNAGjrwa9tXCtl-252" value="Tapahtuman nimi" style="rounded=0;whiteSpace=wrap;html=1;fillColor=#fff2cc;strokeColor=#d6b656;align=left;" vertex="1" parent="1">
          <mxGeometry x="190" y="1320" width="220" height="30" as="geometry" />
        </mxCell>
        <mxCell id="P5J0pzsNAGjrwa9tXCtl-253" value="Kaupunki" style="rounded=0;whiteSpace=wrap;html=1;fillColor=#fff2cc;strokeColor=#d6b656;align=left;" vertex="1" parent="1">
          <mxGeometry x="190" y="1350" width="220" height="30" as="geometry" />
        </mxCell>
        <mxCell id="P5J0pzsNAGjrwa9tXCtl-254" value="Tapahtumapaikka" style="rounded=0;whiteSpace=wrap;html=1;fillColor=#fff2cc;strokeColor=#d6b656;align=left;" vertex="1" parent="1">
          <mxGeometry x="190" y="1380" width="220" height="30" as="geometry" />
        </mxCell>
        <mxCell id="P5J0pzsNAGjrwa9tXCtl-255" value="xx.xx.xxxx" style="rounded=0;whiteSpace=wrap;html=1;fillColor=#fff2cc;strokeColor=#d6b656;align=left;" vertex="1" parent="1">
          <mxGeometry x="190" y="1410" width="220" height="30" as="geometry" />
        </mxCell>
        <mxCell id="P5J0pzsNAGjrwa9tXCtl-256" value="xx:xx" style="rounded=0;whiteSpace=wrap;html=1;fillColor=#fff2cc;strokeColor=#d6b656;align=left;" vertex="1" parent="1">
          <mxGeometry x="190" y="1440" width="220" height="30" as="geometry" />
        </mxCell>
        <mxCell id="P5J0pzsNAGjrwa9tXCtl-257" value="&lt;b&gt;Lippujen määrä:&lt;/b&gt;" style="rounded=0;whiteSpace=wrap;html=1;align=left;fillColor=#e1d5e7;strokeColor=#9673a6;" vertex="1" parent="1">
          <mxGeometry x="70" y="1470" width="120" height="30" as="geometry" />
        </mxCell>
        <mxCell id="P5J0pzsNAGjrwa9tXCtl-259" value="" style="rounded=1;whiteSpace=wrap;html=1;align=left;" vertex="1" parent="1">
          <mxGeometry x="203" y="1475" width="67" height="25" as="geometry" />
        </mxCell>
        <mxCell id="P5J0pzsNAGjrwa9tXCtl-262" value="&lt;b&gt;Aikuinen&lt;/b&gt;" style="rounded=0;whiteSpace=wrap;html=1;align=left;fillColor=#e1d5e7;strokeColor=#9673a6;" vertex="1" parent="1">
          <mxGeometry x="470" y="1320" width="120" height="30" as="geometry" />
        </mxCell>
        <mxCell id="P5J0pzsNAGjrwa9tXCtl-264" value="&lt;b&gt;Lapsi&lt;/b&gt;" style="rounded=0;whiteSpace=wrap;html=1;align=left;fillColor=#e1d5e7;strokeColor=#9673a6;" vertex="1" parent="1">
          <mxGeometry x="470" y="1350" width="120" height="30" as="geometry" />
        </mxCell>
        <mxCell id="P5J0pzsNAGjrwa9tXCtl-266" value="&lt;b&gt;Opiskelija&lt;/b&gt;" style="rounded=0;whiteSpace=wrap;html=1;align=left;fillColor=#e1d5e7;strokeColor=#9673a6;" vertex="1" parent="1">
          <mxGeometry x="470" y="1380" width="120" height="30" as="geometry" />
        </mxCell>
        <mxCell id="P5J0pzsNAGjrwa9tXCtl-268" value="&lt;font style=&quot;font-size: 13px&quot;&gt;Hinnat&lt;/font&gt;" style="text;html=1;strokeColor=none;fillColor=none;align=left;verticalAlign=middle;whiteSpace=wrap;rounded=0;fontStyle=1" vertex="1" parent="1">
          <mxGeometry x="470" y="1300" width="160" height="20" as="geometry" />
        </mxCell>
        <mxCell id="P5J0pzsNAGjrwa9tXCtl-269" value="20.00€" style="rounded=1;whiteSpace=wrap;html=1;align=left;" vertex="1" parent="1">
          <mxGeometry x="600" y="1325" width="60" height="20" as="geometry" />
        </mxCell>
        <mxCell id="P5J0pzsNAGjrwa9tXCtl-270" value="" style="rounded=1;whiteSpace=wrap;html=1;align=left;" vertex="1" parent="1">
          <mxGeometry x="600" y="1355" width="60" height="20" as="geometry" />
        </mxCell>
        <mxCell id="P5J0pzsNAGjrwa9tXCtl-271" value="" style="rounded=1;whiteSpace=wrap;html=1;align=left;" vertex="1" parent="1">
          <mxGeometry x="600" y="1385" width="60" height="20" as="geometry" />
        </mxCell>
        <mxCell id="P5J0pzsNAGjrwa9tXCtl-272" value="" style="shape=doubleArrow;whiteSpace=wrap;html=1;rotation=-90;" vertex="1" parent="1">
          <mxGeometry x="648" y="1330" width="10" height="10" as="geometry" />
        </mxCell>
        <mxCell id="P5J0pzsNAGjrwa9tXCtl-273" value="" style="shape=doubleArrow;whiteSpace=wrap;html=1;rotation=-90;" vertex="1" parent="1">
          <mxGeometry x="648" y="1360" width="10" height="10" as="geometry" />
        </mxCell>
        <mxCell id="P5J0pzsNAGjrwa9tXCtl-274" value="" style="shape=doubleArrow;whiteSpace=wrap;html=1;rotation=-90;" vertex="1" parent="1">
          <mxGeometry x="648" y="1390" width="10" height="10" as="geometry" />
        </mxCell>
        <mxCell id="P5J0pzsNAGjrwa9tXCtl-278" value="" style="shape=doubleArrow;whiteSpace=wrap;html=1;rotation=-90;" vertex="1" parent="1">
          <mxGeometry x="254" y="1483" width="10" height="10" as="geometry" />
        </mxCell>
        <mxCell id="P5J0pzsNAGjrwa9tXCtl-279" value="&lt;b&gt;Eläkeläinen&lt;/b&gt;" style="rounded=0;whiteSpace=wrap;html=1;align=left;fillColor=#e1d5e7;strokeColor=#9673a6;" vertex="1" parent="1">
          <mxGeometry x="470" y="1410" width="120" height="30" as="geometry" />
        </mxCell>
        <mxCell id="P5J0pzsNAGjrwa9tXCtl-280" value="&lt;b&gt;Varusmies&lt;/b&gt;" style="rounded=0;whiteSpace=wrap;html=1;align=left;fillColor=#e1d5e7;strokeColor=#9673a6;" vertex="1" parent="1">
          <mxGeometry x="470" y="1440" width="120" height="30" as="geometry" />
        </mxCell>
        <mxCell id="P5J0pzsNAGjrwa9tXCtl-281" value="&lt;font style=&quot;font-size: 13px&quot;&gt;Valitse&lt;/font&gt;" style="text;html=1;strokeColor=none;fillColor=none;align=left;verticalAlign=middle;whiteSpace=wrap;rounded=0;fontStyle=1" vertex="1" parent="1">
          <mxGeometry x="680" y="1297" width="50" height="20" as="geometry" />
        </mxCell>
        <mxCell id="P5J0pzsNAGjrwa9tXCtl-282" value="" style="whiteSpace=wrap;html=1;aspect=fixed;fillColor=#008a00;strokeColor=#005700;fontColor=#ffffff;" vertex="1" parent="1">
          <mxGeometry x="695" y="1330" width="10" height="10" as="geometry" />
        </mxCell>
        <mxCell id="P5J0pzsNAGjrwa9tXCtl-283" value="" style="whiteSpace=wrap;html=1;aspect=fixed;" vertex="1" parent="1">
          <mxGeometry x="695" y="1360" width="10" height="10" as="geometry" />
        </mxCell>
        <mxCell id="P5J0pzsNAGjrwa9tXCtl-284" value="" style="whiteSpace=wrap;html=1;aspect=fixed;" vertex="1" parent="1">
          <mxGeometry x="695" y="1390" width="10" height="10" as="geometry" />
        </mxCell>
        <mxCell id="P5J0pzsNAGjrwa9tXCtl-285" value="" style="whiteSpace=wrap;html=1;aspect=fixed;" vertex="1" parent="1">
          <mxGeometry x="695" y="1420" width="10" height="10" as="geometry" />
        </mxCell>
        <mxCell id="P5J0pzsNAGjrwa9tXCtl-286" value="" style="whiteSpace=wrap;html=1;aspect=fixed;" vertex="1" parent="1">
          <mxGeometry x="695" y="1450" width="10" height="10" as="geometry" />
        </mxCell>
        <mxCell id="P5J0pzsNAGjrwa9tXCtl-288" value="" style="rounded=1;whiteSpace=wrap;html=1;align=left;" vertex="1" parent="1">
          <mxGeometry x="600" y="1414" width="60" height="20" as="geometry" />
        </mxCell>
        <mxCell id="P5J0pzsNAGjrwa9tXCtl-289" value="" style="rounded=1;whiteSpace=wrap;html=1;align=left;" vertex="1" parent="1">
          <mxGeometry x="600" y="1444" width="60" height="20" as="geometry" />
        </mxCell>
        <mxCell id="P5J0pzsNAGjrwa9tXCtl-290" value="" style="shape=doubleArrow;whiteSpace=wrap;html=1;rotation=-90;" vertex="1" parent="1">
          <mxGeometry x="648" y="1419" width="10" height="10" as="geometry" />
        </mxCell>
        <mxCell id="P5J0pzsNAGjrwa9tXCtl-291" value="" style="shape=doubleArrow;whiteSpace=wrap;html=1;rotation=-90;" vertex="1" parent="1">
          <mxGeometry x="648" y="1449" width="10" height="10" as="geometry" />
        </mxCell>
        <mxCell id="P5J0pzsNAGjrwa9tXCtl-295" value="&lt;font style=&quot;font-size: 13px&quot;&gt;Maksettu:&lt;br&gt;25.01.2021 klo 15:00&lt;br&gt;&lt;/font&gt;" style="text;html=1;strokeColor=none;fillColor=none;align=left;verticalAlign=middle;whiteSpace=wrap;rounded=0;fontStyle=1" vertex="1" parent="1">
          <mxGeometry x="70" y="1050" width="150" height="40" as="geometry" />
        </mxCell>
        <mxCell id="P5J0pzsNAGjrwa9tXCtl-296" value="" style="rounded=0;whiteSpace=wrap;html=1;" vertex="1" parent="1">
          <mxGeometry y="1640" width="830" height="410" as="geometry" />
        </mxCell>
        <mxCell id="P5J0pzsNAGjrwa9tXCtl-297" value="" style="endArrow=none;html=1;" edge="1" parent="1">
          <mxGeometry width="50" height="50" relative="1" as="geometry">
            <mxPoint y="1640" as="sourcePoint" />
            <mxPoint x="830" y="1640" as="targetPoint" />
          </mxGeometry>
        </mxCell>
        <mxCell id="P5J0pzsNAGjrwa9tXCtl-298" value="&lt;font style=&quot;font-size: 16px&quot;&gt;Muokkaa tapahtumaa&lt;/font&gt;" style="text;html=1;strokeColor=none;fillColor=none;align=left;verticalAlign=middle;whiteSpace=wrap;rounded=0;fontStyle=1" vertex="1" parent="1">
          <mxGeometry x="10" y="1660" width="200" height="20" as="geometry" />
        </mxCell>
        <mxCell id="P5J0pzsNAGjrwa9tXCtl-299" value="&lt;b&gt;Tapahtuman nimi:&lt;/b&gt;" style="rounded=0;whiteSpace=wrap;html=1;align=left;fillColor=#e1d5e7;strokeColor=#9673a6;" vertex="1" parent="1">
          <mxGeometry x="70" y="1730" width="120" height="30" as="geometry" />
        </mxCell>
        <mxCell id="P5J0pzsNAGjrwa9tXCtl-300" value="&lt;b&gt;Kaupunki:&lt;/b&gt;" style="rounded=0;whiteSpace=wrap;html=1;align=left;fillColor=#e1d5e7;strokeColor=#9673a6;" vertex="1" parent="1">
          <mxGeometry x="70" y="1760" width="120" height="30" as="geometry" />
        </mxCell>
        <mxCell id="P5J0pzsNAGjrwa9tXCtl-301" value="&lt;b&gt;Tapahtumapaikka:&lt;/b&gt;" style="rounded=0;whiteSpace=wrap;html=1;align=left;fillColor=#e1d5e7;strokeColor=#9673a6;" vertex="1" parent="1">
          <mxGeometry x="70" y="1790" width="120" height="30" as="geometry" />
        </mxCell>
        <mxCell id="P5J0pzsNAGjrwa9tXCtl-302" value="&lt;font style=&quot;font-size: 13px&quot;&gt;Tapahtuma&lt;/font&gt;" style="text;html=1;strokeColor=none;fillColor=none;align=left;verticalAlign=middle;whiteSpace=wrap;rounded=0;fontStyle=1" vertex="1" parent="1">
          <mxGeometry x="70" y="1707" width="160" height="20" as="geometry" />
        </mxCell>
        <mxCell id="P5J0pzsNAGjrwa9tXCtl-303" value="Takaisin" style="rounded=0;whiteSpace=wrap;html=1;fillColor=#e1d5e7;strokeColor=#9673a6;fontStyle=1" vertex="1" parent="1">
          <mxGeometry x="70" y="2010" width="120" height="30" as="geometry" />
        </mxCell>
        <mxCell id="P5J0pzsNAGjrwa9tXCtl-304" value="Tallenna" style="rounded=0;whiteSpace=wrap;html=1;fillColor=#e1d5e7;strokeColor=#9673a6;fontStyle=1" vertex="1" parent="1">
          <mxGeometry x="585" y="2010" width="120" height="30" as="geometry" />
        </mxCell>
        <mxCell id="P5J0pzsNAGjrwa9tXCtl-305" value="&lt;b&gt;Päivämäärä:&lt;/b&gt;" style="rounded=0;whiteSpace=wrap;html=1;align=left;fillColor=#e1d5e7;strokeColor=#9673a6;" vertex="1" parent="1">
          <mxGeometry x="70" y="1820" width="120" height="30" as="geometry" />
        </mxCell>
        <mxCell id="P5J0pzsNAGjrwa9tXCtl-306" value="&lt;b&gt;Aika:&lt;/b&gt;" style="rounded=0;whiteSpace=wrap;html=1;align=left;fillColor=#e1d5e7;strokeColor=#9673a6;" vertex="1" parent="1">
          <mxGeometry x="70" y="1850" width="120" height="30" as="geometry" />
        </mxCell>
        <mxCell id="P5J0pzsNAGjrwa9tXCtl-307" value="Celine Dion" style="rounded=0;whiteSpace=wrap;html=1;fillColor=#fff2cc;strokeColor=#d6b656;align=left;" vertex="1" parent="1">
          <mxGeometry x="190" y="1730" width="220" height="30" as="geometry" />
        </mxCell>
        <mxCell id="P5J0pzsNAGjrwa9tXCtl-308" value="Helsinki" style="rounded=0;whiteSpace=wrap;html=1;fillColor=#fff2cc;strokeColor=#d6b656;align=left;" vertex="1" parent="1">
          <mxGeometry x="190" y="1760" width="220" height="30" as="geometry" />
        </mxCell>
        <mxCell id="P5J0pzsNAGjrwa9tXCtl-309" value="Tavastia" style="rounded=0;whiteSpace=wrap;html=1;fillColor=#fff2cc;strokeColor=#d6b656;align=left;" vertex="1" parent="1">
          <mxGeometry x="190" y="1790" width="220" height="30" as="geometry" />
        </mxCell>
        <mxCell id="P5J0pzsNAGjrwa9tXCtl-310" value="15.05.2021" style="rounded=0;whiteSpace=wrap;html=1;fillColor=#fff2cc;strokeColor=#d6b656;align=left;" vertex="1" parent="1">
          <mxGeometry x="190" y="1820" width="220" height="30" as="geometry" />
        </mxCell>
        <mxCell id="P5J0pzsNAGjrwa9tXCtl-311" value="18:00" style="rounded=0;whiteSpace=wrap;html=1;fillColor=#fff2cc;strokeColor=#d6b656;align=left;" vertex="1" parent="1">
          <mxGeometry x="190" y="1850" width="220" height="30" as="geometry" />
        </mxCell>
        <mxCell id="P5J0pzsNAGjrwa9tXCtl-312" value="&lt;b&gt;Lippujen määrä:&lt;/b&gt;" style="rounded=0;whiteSpace=wrap;html=1;align=left;fillColor=#e1d5e7;strokeColor=#9673a6;" vertex="1" parent="1">
          <mxGeometry x="70" y="1880" width="120" height="30" as="geometry" />
        </mxCell>
        <mxCell id="P5J0pzsNAGjrwa9tXCtl-313" value="850" style="rounded=1;whiteSpace=wrap;html=1;align=left;" vertex="1" parent="1">
          <mxGeometry x="203" y="1885" width="67" height="25" as="geometry" />
        </mxCell>
        <mxCell id="P5J0pzsNAGjrwa9tXCtl-314" value="&lt;b&gt;Aikuinen&lt;/b&gt;" style="rounded=0;whiteSpace=wrap;html=1;align=left;fillColor=#e1d5e7;strokeColor=#9673a6;" vertex="1" parent="1">
          <mxGeometry x="470" y="1730" width="120" height="30" as="geometry" />
        </mxCell>
        <mxCell id="P5J0pzsNAGjrwa9tXCtl-315" value="&lt;b&gt;Lapsi&lt;/b&gt;" style="rounded=0;whiteSpace=wrap;html=1;align=left;fillColor=#e1d5e7;strokeColor=#9673a6;" vertex="1" parent="1">
          <mxGeometry x="470" y="1760" width="120" height="30" as="geometry" />
        </mxCell>
        <mxCell id="P5J0pzsNAGjrwa9tXCtl-316" value="&lt;b&gt;Opiskelija&lt;/b&gt;" style="rounded=0;whiteSpace=wrap;html=1;align=left;fillColor=#e1d5e7;strokeColor=#9673a6;" vertex="1" parent="1">
          <mxGeometry x="470" y="1790" width="120" height="30" as="geometry" />
        </mxCell>
        <mxCell id="P5J0pzsNAGjrwa9tXCtl-317" value="&lt;font style=&quot;font-size: 13px&quot;&gt;Hinnat&lt;/font&gt;" style="text;html=1;strokeColor=none;fillColor=none;align=left;verticalAlign=middle;whiteSpace=wrap;rounded=0;fontStyle=1" vertex="1" parent="1">
          <mxGeometry x="470" y="1710" width="160" height="20" as="geometry" />
        </mxCell>
        <mxCell id="P5J0pzsNAGjrwa9tXCtl-318" value="&lt;span&gt;20.00€&lt;/span&gt;" style="rounded=1;whiteSpace=wrap;html=1;align=left;" vertex="1" parent="1">
          <mxGeometry x="600" y="1735" width="60" height="20" as="geometry" />
        </mxCell>
        <mxCell id="P5J0pzsNAGjrwa9tXCtl-319" value="&lt;span&gt;10.00€&lt;/span&gt;" style="rounded=1;whiteSpace=wrap;html=1;align=left;" vertex="1" parent="1">
          <mxGeometry x="600" y="1765" width="60" height="20" as="geometry" />
        </mxCell>
        <mxCell id="P5J0pzsNAGjrwa9tXCtl-320" value="15.00€" style="rounded=1;whiteSpace=wrap;html=1;align=left;" vertex="1" parent="1">
          <mxGeometry x="600" y="1795" width="60" height="20" as="geometry" />
        </mxCell>
        <mxCell id="P5J0pzsNAGjrwa9tXCtl-321" value="" style="shape=doubleArrow;whiteSpace=wrap;html=1;rotation=-90;" vertex="1" parent="1">
          <mxGeometry x="648" y="1740" width="10" height="10" as="geometry" />
        </mxCell>
        <mxCell id="P5J0pzsNAGjrwa9tXCtl-322" value="" style="shape=doubleArrow;whiteSpace=wrap;html=1;rotation=-90;" vertex="1" parent="1">
          <mxGeometry x="648" y="1770" width="10" height="10" as="geometry" />
        </mxCell>
        <mxCell id="P5J0pzsNAGjrwa9tXCtl-323" value="" style="shape=doubleArrow;whiteSpace=wrap;html=1;rotation=-90;" vertex="1" parent="1">
          <mxGeometry x="648" y="1800" width="10" height="10" as="geometry" />
        </mxCell>
        <mxCell id="P5J0pzsNAGjrwa9tXCtl-324" value="" style="shape=doubleArrow;whiteSpace=wrap;html=1;rotation=-90;" vertex="1" parent="1">
          <mxGeometry x="254" y="1893" width="10" height="10" as="geometry" />
        </mxCell>
        <mxCell id="P5J0pzsNAGjrwa9tXCtl-325" value="&lt;b&gt;Eläkeläinen&lt;/b&gt;" style="rounded=0;whiteSpace=wrap;html=1;align=left;fillColor=#e1d5e7;strokeColor=#9673a6;" vertex="1" parent="1">
          <mxGeometry x="470" y="1820" width="120" height="30" as="geometry" />
        </mxCell>
        <mxCell id="P5J0pzsNAGjrwa9tXCtl-326" value="&lt;b&gt;Varusmies&lt;/b&gt;" style="rounded=0;whiteSpace=wrap;html=1;align=left;fillColor=#e1d5e7;strokeColor=#9673a6;" vertex="1" parent="1">
          <mxGeometry x="470" y="1850" width="120" height="30" as="geometry" />
        </mxCell>
        <mxCell id="P5J0pzsNAGjrwa9tXCtl-327" value="&lt;font style=&quot;font-size: 13px&quot;&gt;Valitse&lt;/font&gt;" style="text;html=1;strokeColor=none;fillColor=none;align=left;verticalAlign=middle;whiteSpace=wrap;rounded=0;fontStyle=1" vertex="1" parent="1">
          <mxGeometry x="680" y="1707" width="50" height="20" as="geometry" />
        </mxCell>
        <mxCell id="P5J0pzsNAGjrwa9tXCtl-328" value="" style="whiteSpace=wrap;html=1;aspect=fixed;fillColor=#008a00;strokeColor=#005700;fontColor=#ffffff;" vertex="1" parent="1">
          <mxGeometry x="695" y="1740" width="10" height="10" as="geometry" />
        </mxCell>
        <mxCell id="P5J0pzsNAGjrwa9tXCtl-329" value="" style="whiteSpace=wrap;html=1;aspect=fixed;fillColor=#008a00;strokeColor=#005700;fontColor=#ffffff;" vertex="1" parent="1">
          <mxGeometry x="695" y="1770" width="10" height="10" as="geometry" />
        </mxCell>
        <mxCell id="P5J0pzsNAGjrwa9tXCtl-330" value="" style="whiteSpace=wrap;html=1;aspect=fixed;fillColor=#008a00;strokeColor=#005700;fontColor=#ffffff;" vertex="1" parent="1">
          <mxGeometry x="695" y="1800" width="10" height="10" as="geometry" />
        </mxCell>
        <mxCell id="P5J0pzsNAGjrwa9tXCtl-331" value="" style="whiteSpace=wrap;html=1;aspect=fixed;fillColor=#008a00;strokeColor=#005700;fontColor=#ffffff;" vertex="1" parent="1">
          <mxGeometry x="695" y="1830" width="10" height="10" as="geometry" />
        </mxCell>
        <mxCell id="P5J0pzsNAGjrwa9tXCtl-332" value="" style="whiteSpace=wrap;html=1;aspect=fixed;" vertex="1" parent="1">
          <mxGeometry x="695" y="1860" width="10" height="10" as="geometry" />
        </mxCell>
        <mxCell id="P5J0pzsNAGjrwa9tXCtl-333" value="10.00€" style="rounded=1;whiteSpace=wrap;html=1;align=left;" vertex="1" parent="1">
          <mxGeometry x="600" y="1824" width="60" height="20" as="geometry" />
        </mxCell>
        <mxCell id="P5J0pzsNAGjrwa9tXCtl-334" value="" style="rounded=1;whiteSpace=wrap;html=1;align=left;" vertex="1" parent="1">
          <mxGeometry x="600" y="1854" width="60" height="20" as="geometry" />
        </mxCell>
        <mxCell id="P5J0pzsNAGjrwa9tXCtl-335" value="" style="shape=doubleArrow;whiteSpace=wrap;html=1;rotation=-90;" vertex="1" parent="1">
          <mxGeometry x="648" y="1829" width="10" height="10" as="geometry" />
        </mxCell>
        <mxCell id="P5J0pzsNAGjrwa9tXCtl-336" value="" style="shape=doubleArrow;whiteSpace=wrap;html=1;rotation=-90;" vertex="1" parent="1">
          <mxGeometry x="648" y="1859" width="10" height="10" as="geometry" />
        </mxCell>
        <mxCell id="P5J0pzsNAGjrwa9tXCtl-337" value="" style="rounded=0;whiteSpace=wrap;html=1;" vertex="1" parent="1">
          <mxGeometry y="2050" width="830" height="410" as="geometry" />
        </mxCell>
        <mxCell id="P5J0pzsNAGjrwa9tXCtl-338" value="" style="endArrow=none;html=1;" edge="1" parent="1">
          <mxGeometry width="50" height="50" relative="1" as="geometry">
            <mxPoint y="2050" as="sourcePoint" />
            <mxPoint x="830" y="2050" as="targetPoint" />
          </mxGeometry>
        </mxCell>
        <mxCell id="P5J0pzsNAGjrwa9tXCtl-339" value="&lt;font style=&quot;font-size: 16px&quot;&gt;Tapahtuma&lt;/font&gt;" style="text;html=1;strokeColor=none;fillColor=none;align=left;verticalAlign=middle;whiteSpace=wrap;rounded=0;fontStyle=1" vertex="1" parent="1">
          <mxGeometry x="10" y="2070" width="200" height="20" as="geometry" />
        </mxCell>
        <mxCell id="P5J0pzsNAGjrwa9tXCtl-344" value="Takaisin" style="rounded=0;whiteSpace=wrap;html=1;fillColor=#e1d5e7;strokeColor=#9673a6;fontStyle=1" vertex="1" parent="1">
          <mxGeometry x="70" y="2420" width="120" height="30" as="geometry" />
        </mxCell>
        <mxCell id="P5J0pzsNAGjrwa9tXCtl-345" value="&amp;nbsp;Muokkaa tapahtumaa" style="rounded=0;whiteSpace=wrap;html=1;fillColor=#e1d5e7;strokeColor=#9673a6;fontStyle=1;align=left;" vertex="1" parent="1">
          <mxGeometry x="70" y="2220" width="140" height="30" as="geometry" />
        </mxCell>
        <mxCell id="P5J0pzsNAGjrwa9tXCtl-379" value="&lt;b&gt;Tapahtuma&lt;/b&gt;" style="rounded=0;whiteSpace=wrap;html=1;align=left;fillColor=#e1d5e7;strokeColor=#9673a6;" vertex="1" parent="1">
          <mxGeometry x="70" y="2140" width="120" height="30" as="geometry" />
        </mxCell>
        <mxCell id="P5J0pzsNAGjrwa9tXCtl-380" value="&lt;b&gt;Kaupunki&lt;/b&gt;" style="rounded=0;whiteSpace=wrap;html=1;align=left;fillColor=#e1d5e7;strokeColor=#9673a6;" vertex="1" parent="1">
          <mxGeometry x="190" y="2140" width="90" height="30" as="geometry" />
        </mxCell>
        <mxCell id="P5J0pzsNAGjrwa9tXCtl-381" value="&lt;b&gt;Tapahtumapaikka&lt;/b&gt;" style="rounded=0;whiteSpace=wrap;html=1;align=left;fillColor=#e1d5e7;strokeColor=#9673a6;" vertex="1" parent="1">
          <mxGeometry x="280" y="2140" width="120" height="30" as="geometry" />
        </mxCell>
        <mxCell id="P5J0pzsNAGjrwa9tXCtl-382" value="&lt;b&gt;Päivämäärä&lt;/b&gt;" style="rounded=0;whiteSpace=wrap;html=1;align=left;fillColor=#e1d5e7;strokeColor=#9673a6;" vertex="1" parent="1">
          <mxGeometry x="400" y="2140" width="120" height="30" as="geometry" />
        </mxCell>
        <mxCell id="P5J0pzsNAGjrwa9tXCtl-383" value="&lt;span style=&quot;font-weight: normal&quot;&gt;Tavastia&lt;/span&gt;" style="rounded=0;whiteSpace=wrap;html=1;align=center;fontStyle=1" vertex="1" parent="1">
          <mxGeometry x="280" y="2170" width="140" height="30" as="geometry" />
        </mxCell>
        <mxCell id="P5J0pzsNAGjrwa9tXCtl-384" value="&lt;span style=&quot;font-weight: normal&quot;&gt;15.05.2021 18:00&lt;/span&gt;" style="rounded=0;whiteSpace=wrap;html=1;align=left;fontStyle=1;fillColor=#fff2cc;strokeColor=#d6b656;" vertex="1" parent="1">
          <mxGeometry x="400" y="2170" width="120" height="30" as="geometry" />
        </mxCell>
        <mxCell id="P5J0pzsNAGjrwa9tXCtl-385" value="&lt;span style=&quot;font-weight: normal&quot;&gt;Celine Dion&lt;/span&gt;" style="rounded=0;whiteSpace=wrap;html=1;align=left;fontStyle=1;fillColor=#fff2cc;strokeColor=#d6b656;" vertex="1" parent="1">
          <mxGeometry x="70" y="2170" width="120" height="30" as="geometry" />
        </mxCell>
        <mxCell id="P5J0pzsNAGjrwa9tXCtl-386" value="&lt;span style=&quot;font-weight: normal&quot;&gt;Helsinki&lt;/span&gt;" style="rounded=0;whiteSpace=wrap;html=1;align=left;fontStyle=1;fillColor=#fff2cc;strokeColor=#d6b656;" vertex="1" parent="1">
          <mxGeometry x="190" y="2170" width="90" height="30" as="geometry" />
        </mxCell>
        <mxCell id="P5J0pzsNAGjrwa9tXCtl-387" value="&lt;span style=&quot;font-weight: normal&quot;&gt;Tavastia&lt;/span&gt;" style="rounded=0;whiteSpace=wrap;html=1;align=left;fontStyle=1;fillColor=#fff2cc;strokeColor=#d6b656;" vertex="1" parent="1">
          <mxGeometry x="280" y="2170" width="120" height="30" as="geometry" />
        </mxCell>
        <mxCell id="P5J0pzsNAGjrwa9tXCtl-389" value="&lt;b&gt;Lippuja&lt;/b&gt;" style="rounded=0;whiteSpace=wrap;html=1;align=left;fillColor=#e1d5e7;strokeColor=#9673a6;" vertex="1" parent="1">
          <mxGeometry x="520" y="2140" width="90" height="30" as="geometry" />
        </mxCell>
        <mxCell id="P5J0pzsNAGjrwa9tXCtl-390" value="&lt;span style=&quot;font-weight: normal&quot;&gt;300 / 850&lt;/span&gt;" style="rounded=0;whiteSpace=wrap;html=1;align=left;fontStyle=1;fillColor=#fff2cc;strokeColor=#d6b656;" vertex="1" parent="1">
          <mxGeometry x="520" y="2170" width="90" height="30" as="geometry" />
        </mxCell>
        <mxCell id="P5J0pzsNAGjrwa9tXCtl-391" value="&amp;nbsp;Myyntiraportti" style="rounded=0;whiteSpace=wrap;html=1;fillColor=#e1d5e7;strokeColor=#9673a6;fontStyle=1;align=left;" vertex="1" parent="1">
          <mxGeometry x="70" y="2270" width="140" height="30" as="geometry" />
        </mxCell>
        <mxCell id="P5J0pzsNAGjrwa9tXCtl-407" value="" style="rounded=0;whiteSpace=wrap;html=1;" vertex="1" parent="1">
          <mxGeometry y="2460" width="830" height="410" as="geometry" />
        </mxCell>
        <mxCell id="P5J0pzsNAGjrwa9tXCtl-408" value="" style="endArrow=none;html=1;" edge="1" parent="1">
          <mxGeometry width="50" height="50" relative="1" as="geometry">
            <mxPoint y="2460" as="sourcePoint" />
            <mxPoint x="830" y="2460" as="targetPoint" />
          </mxGeometry>
        </mxCell>
        <mxCell id="P5J0pzsNAGjrwa9tXCtl-409" value="&lt;font style=&quot;font-size: 16px&quot;&gt;Myyntiraportti &amp;amp; myyntitapahtumat&lt;/font&gt;" style="text;html=1;strokeColor=none;fillColor=none;align=left;verticalAlign=middle;whiteSpace=wrap;rounded=0;fontStyle=1" vertex="1" parent="1">
          <mxGeometry x="10" y="2480" width="310" height="20" as="geometry" />
        </mxCell>
        <mxCell id="P5J0pzsNAGjrwa9tXCtl-410" value="Takaisin" style="rounded=0;whiteSpace=wrap;html=1;fillColor=#e1d5e7;strokeColor=#9673a6;fontStyle=1" vertex="1" parent="1">
          <mxGeometry x="70" y="2830" width="120" height="30" as="geometry" />
        </mxCell>
        <mxCell id="P5J0pzsNAGjrwa9tXCtl-412" value="&lt;b&gt;Lipputyyppi&lt;/b&gt;" style="rounded=0;whiteSpace=wrap;html=1;align=left;fillColor=#e1d5e7;strokeColor=#9673a6;" vertex="1" parent="1">
          <mxGeometry x="70" y="2550" width="120" height="30" as="geometry" />
        </mxCell>
        <mxCell id="P5J0pzsNAGjrwa9tXCtl-413" value="&lt;b&gt;Kpl&lt;/b&gt;" style="rounded=0;whiteSpace=wrap;html=1;align=left;fillColor=#e1d5e7;strokeColor=#9673a6;" vertex="1" parent="1">
          <mxGeometry x="190" y="2550" width="90" height="30" as="geometry" />
        </mxCell>
        <mxCell id="P5J0pzsNAGjrwa9tXCtl-414" value="&lt;b&gt;Yhteensä&lt;/b&gt;" style="rounded=0;whiteSpace=wrap;html=1;align=left;fillColor=#e1d5e7;strokeColor=#9673a6;" vertex="1" parent="1">
          <mxGeometry x="280" y="2550" width="120" height="30" as="geometry" />
        </mxCell>
        <mxCell id="P5J0pzsNAGjrwa9tXCtl-418" value="&lt;span style=&quot;font-weight: normal&quot;&gt;Aikuinen&lt;/span&gt;" style="rounded=0;whiteSpace=wrap;html=1;align=left;fontStyle=1;fillColor=#fff2cc;strokeColor=#d6b656;" vertex="1" parent="1">
          <mxGeometry x="70" y="2580" width="120" height="30" as="geometry" />
        </mxCell>
        <mxCell id="P5J0pzsNAGjrwa9tXCtl-419" value="&lt;span style=&quot;font-weight: normal&quot;&gt;123&lt;/span&gt;" style="rounded=0;whiteSpace=wrap;html=1;align=left;fontStyle=1;fillColor=#fff2cc;strokeColor=#d6b656;" vertex="1" parent="1">
          <mxGeometry x="190" y="2580" width="90" height="30" as="geometry" />
        </mxCell>
        <mxCell id="P5J0pzsNAGjrwa9tXCtl-420" value="&lt;span style=&quot;font-weight: normal&quot;&gt;2460.00€&lt;/span&gt;" style="rounded=0;whiteSpace=wrap;html=1;align=left;fontStyle=1;fillColor=#fff2cc;strokeColor=#d6b656;" vertex="1" parent="1">
          <mxGeometry x="280" y="2580" width="120" height="30" as="geometry" />
        </mxCell>
        <mxCell id="P5J0pzsNAGjrwa9tXCtl-424" value="&lt;span style=&quot;font-weight: normal&quot;&gt;Lapsi&lt;/span&gt;" style="rounded=0;whiteSpace=wrap;html=1;align=left;fontStyle=1;fillColor=#fff2cc;strokeColor=#d6b656;" vertex="1" parent="1">
          <mxGeometry x="70" y="2610" width="120" height="30" as="geometry" />
        </mxCell>
        <mxCell id="P5J0pzsNAGjrwa9tXCtl-425" value="&lt;span style=&quot;font-weight: normal&quot;&gt;123&lt;/span&gt;" style="rounded=0;whiteSpace=wrap;html=1;align=left;fontStyle=1;fillColor=#fff2cc;strokeColor=#d6b656;" vertex="1" parent="1">
          <mxGeometry x="190" y="2610" width="90" height="30" as="geometry" />
        </mxCell>
        <mxCell id="P5J0pzsNAGjrwa9tXCtl-426" value="&lt;span style=&quot;font-weight: normal&quot;&gt;2460.00€&lt;/span&gt;" style="rounded=0;whiteSpace=wrap;html=1;align=left;fontStyle=1;fillColor=#fff2cc;strokeColor=#d6b656;" vertex="1" parent="1">
          <mxGeometry x="280" y="2610" width="120" height="30" as="geometry" />
        </mxCell>
        <mxCell id="P5J0pzsNAGjrwa9tXCtl-427" value="&lt;span style=&quot;&quot;&gt;Yhteensä&lt;/span&gt;" style="rounded=0;whiteSpace=wrap;html=1;align=left;fontStyle=1;fillColor=#fff2cc;strokeColor=#d6b656;" vertex="1" parent="1">
          <mxGeometry x="70" y="2640" width="120" height="30" as="geometry" />
        </mxCell>
        <mxCell id="P5J0pzsNAGjrwa9tXCtl-428" value="&lt;span style=&quot;&quot;&gt;123&lt;/span&gt;" style="rounded=0;whiteSpace=wrap;html=1;align=left;fontStyle=1;fillColor=#fff2cc;strokeColor=#d6b656;" vertex="1" parent="1">
          <mxGeometry x="190" y="2640" width="90" height="30" as="geometry" />
        </mxCell>
        <mxCell id="P5J0pzsNAGjrwa9tXCtl-429" value="&lt;span style=&quot;&quot;&gt;2460.00€&lt;/span&gt;" style="rounded=0;whiteSpace=wrap;html=1;align=left;fontStyle=1;fillColor=#fff2cc;strokeColor=#d6b656;" vertex="1" parent="1">
          <mxGeometry x="280" y="2640" width="120" height="30" as="geometry" />
        </mxCell>
        <mxCell id="P5J0pzsNAGjrwa9tXCtl-436" value="&lt;font style=&quot;font-size: 13px&quot;&gt;Myyntiraportti&lt;/font&gt;" style="text;html=1;strokeColor=none;fillColor=none;align=left;verticalAlign=middle;whiteSpace=wrap;rounded=0;fontStyle=1" vertex="1" parent="1">
          <mxGeometry x="70" y="2520" width="160" height="20" as="geometry" />
        </mxCell>
        <mxCell id="P5J0pzsNAGjrwa9tXCtl-437" value="&lt;b&gt;Aika&lt;/b&gt;" style="rounded=0;whiteSpace=wrap;html=1;align=left;fillColor=#e1d5e7;strokeColor=#9673a6;" vertex="1" parent="1">
          <mxGeometry x="420" y="2550" width="120" height="30" as="geometry" />
        </mxCell>
        <mxCell id="P5J0pzsNAGjrwa9tXCtl-438" value="&lt;b&gt;#&lt;/b&gt;" style="rounded=0;whiteSpace=wrap;html=1;align=left;fillColor=#e1d5e7;strokeColor=#9673a6;" vertex="1" parent="1">
          <mxGeometry x="540" y="2550" width="90" height="30" as="geometry" />
        </mxCell>
        <mxCell id="P5J0pzsNAGjrwa9tXCtl-439" value="&lt;b&gt;Summa&lt;/b&gt;" style="rounded=0;whiteSpace=wrap;html=1;align=left;fillColor=#e1d5e7;strokeColor=#9673a6;" vertex="1" parent="1">
          <mxGeometry x="630" y="2550" width="90" height="30" as="geometry" />
        </mxCell>
        <mxCell id="P5J0pzsNAGjrwa9tXCtl-440" value="&lt;span style=&quot;font-weight: normal&quot;&gt;15.05.2021 klo 15:00&lt;/span&gt;" style="rounded=0;whiteSpace=wrap;html=1;align=left;fontStyle=1;fillColor=#fff2cc;strokeColor=#d6b656;" vertex="1" parent="1">
          <mxGeometry x="420" y="2580" width="120" height="30" as="geometry" />
        </mxCell>
        <mxCell id="P5J0pzsNAGjrwa9tXCtl-441" value="&lt;span style=&quot;font-weight: normal&quot;&gt;123&lt;/span&gt;" style="rounded=0;whiteSpace=wrap;html=1;align=left;fontStyle=1;fillColor=#fff2cc;strokeColor=#d6b656;" vertex="1" parent="1">
          <mxGeometry x="540" y="2580" width="90" height="30" as="geometry" />
        </mxCell>
        <mxCell id="P5J0pzsNAGjrwa9tXCtl-442" value="&lt;span style=&quot;font-weight: normal&quot;&gt;2460.00€&lt;/span&gt;" style="rounded=0;whiteSpace=wrap;html=1;align=left;fontStyle=1;fillColor=#fff2cc;strokeColor=#d6b656;" vertex="1" parent="1">
          <mxGeometry x="630" y="2580" width="90" height="30" as="geometry" />
        </mxCell>
        <mxCell id="P5J0pzsNAGjrwa9tXCtl-443" value="&lt;span style=&quot;font-weight: 400&quot;&gt;15.05.2021 klo 15:00&lt;/span&gt;" style="rounded=0;whiteSpace=wrap;html=1;align=left;fontStyle=1;fillColor=#fff2cc;strokeColor=#d6b656;" vertex="1" parent="1">
          <mxGeometry x="420" y="2610" width="120" height="30" as="geometry" />
        </mxCell>
        <mxCell id="P5J0pzsNAGjrwa9tXCtl-444" value="&lt;span style=&quot;font-weight: normal&quot;&gt;123&lt;/span&gt;" style="rounded=0;whiteSpace=wrap;html=1;align=left;fontStyle=1;fillColor=#fff2cc;strokeColor=#d6b656;" vertex="1" parent="1">
          <mxGeometry x="540" y="2610" width="90" height="30" as="geometry" />
        </mxCell>
        <mxCell id="P5J0pzsNAGjrwa9tXCtl-445" value="&lt;span style=&quot;font-weight: normal&quot;&gt;2460.00€&lt;/span&gt;" style="rounded=0;whiteSpace=wrap;html=1;align=left;fontStyle=1;fillColor=#fff2cc;strokeColor=#d6b656;" vertex="1" parent="1">
          <mxGeometry x="630" y="2610" width="90" height="30" as="geometry" />
        </mxCell>
        <mxCell id="P5J0pzsNAGjrwa9tXCtl-449" value="&lt;font style=&quot;font-size: 13px&quot;&gt;Myyntitapahtumat&lt;/font&gt;" style="text;html=1;strokeColor=none;fillColor=none;align=left;verticalAlign=middle;whiteSpace=wrap;rounded=0;fontStyle=1" vertex="1" parent="1">
          <mxGeometry x="420" y="2520" width="160" height="20" as="geometry" />
        </mxCell>
        <mxCell id="P5J0pzsNAGjrwa9tXCtl-450" value="&lt;span style=&quot;font-weight: 400&quot;&gt;15.05.2021 klo 15:00&lt;/span&gt;" style="rounded=0;whiteSpace=wrap;html=1;align=left;fontStyle=1;fillColor=#fff2cc;strokeColor=#d6b656;" vertex="1" parent="1">
          <mxGeometry x="420" y="2640" width="120" height="30" as="geometry" />
        </mxCell>
        <mxCell id="P5J0pzsNAGjrwa9tXCtl-451" value="&lt;span style=&quot;font-weight: normal&quot;&gt;123&lt;/span&gt;" style="rounded=0;whiteSpace=wrap;html=1;align=left;fontStyle=1;fillColor=#fff2cc;strokeColor=#d6b656;" vertex="1" parent="1">
          <mxGeometry x="540" y="2640" width="90" height="30" as="geometry" />
        </mxCell>
        <mxCell id="P5J0pzsNAGjrwa9tXCtl-452" value="&lt;span style=&quot;font-weight: normal&quot;&gt;2460.00€&lt;/span&gt;" style="rounded=0;whiteSpace=wrap;html=1;align=left;fontStyle=1;fillColor=#fff2cc;strokeColor=#d6b656;" vertex="1" parent="1">
          <mxGeometry x="630" y="2640" width="90" height="30" as="geometry" />
        </mxCell>
        <mxCell id="P5J0pzsNAGjrwa9tXCtl-453" value="&lt;span style=&quot;font-weight: 400&quot;&gt;15.05.2021 klo 15:00&lt;/span&gt;" style="rounded=0;whiteSpace=wrap;html=1;align=left;fontStyle=1;fillColor=#fff2cc;strokeColor=#d6b656;" vertex="1" parent="1">
          <mxGeometry x="420" y="2670" width="120" height="30" as="geometry" />
        </mxCell>
        <mxCell id="P5J0pzsNAGjrwa9tXCtl-454" value="&lt;span style=&quot;font-weight: normal&quot;&gt;123&lt;/span&gt;" style="rounded=0;whiteSpace=wrap;html=1;align=left;fontStyle=1;fillColor=#fff2cc;strokeColor=#d6b656;" vertex="1" parent="1">
          <mxGeometry x="540" y="2670" width="90" height="30" as="geometry" />
        </mxCell>
        <mxCell id="P5J0pzsNAGjrwa9tXCtl-455" value="&lt;span style=&quot;font-weight: normal&quot;&gt;2460.00€&lt;/span&gt;" style="rounded=0;whiteSpace=wrap;html=1;align=left;fontStyle=1;fillColor=#fff2cc;strokeColor=#d6b656;" vertex="1" parent="1">
          <mxGeometry x="630" y="2670" width="90" height="30" as="geometry" />
        </mxCell>
        <mxCell id="P5J0pzsNAGjrwa9tXCtl-456" value="&lt;span style=&quot;font-weight: 400&quot;&gt;15.05.2021 klo 15:00&lt;/span&gt;" style="rounded=0;whiteSpace=wrap;html=1;align=left;fontStyle=1;fillColor=#fff2cc;strokeColor=#d6b656;" vertex="1" parent="1">
          <mxGeometry x="420" y="2700" width="120" height="30" as="geometry" />
        </mxCell>
        <mxCell id="P5J0pzsNAGjrwa9tXCtl-457" value="&lt;span style=&quot;font-weight: normal&quot;&gt;123&lt;/span&gt;" style="rounded=0;whiteSpace=wrap;html=1;align=left;fontStyle=1;fillColor=#fff2cc;strokeColor=#d6b656;" vertex="1" parent="1">
          <mxGeometry x="540" y="2700" width="90" height="30" as="geometry" />
        </mxCell>
        <mxCell id="P5J0pzsNAGjrwa9tXCtl-458" value="&lt;span style=&quot;font-weight: normal&quot;&gt;2460.00€&lt;/span&gt;" style="rounded=0;whiteSpace=wrap;html=1;align=left;fontStyle=1;fillColor=#fff2cc;strokeColor=#d6b656;" vertex="1" parent="1">
          <mxGeometry x="630" y="2700" width="90" height="30" as="geometry" />
        </mxCell>
        <mxCell id="P5J0pzsNAGjrwa9tXCtl-459" value="&lt;span style=&quot;font-weight: 400&quot;&gt;15.05.2021 klo 15:00&lt;/span&gt;" style="rounded=0;whiteSpace=wrap;html=1;align=left;fontStyle=1;fillColor=#fff2cc;strokeColor=#d6b656;" vertex="1" parent="1">
          <mxGeometry x="420" y="2730" width="120" height="30" as="geometry" />
        </mxCell>
        <mxCell id="P5J0pzsNAGjrwa9tXCtl-460" value="&lt;span style=&quot;font-weight: normal&quot;&gt;123&lt;/span&gt;" style="rounded=0;whiteSpace=wrap;html=1;align=left;fontStyle=1;fillColor=#fff2cc;strokeColor=#d6b656;" vertex="1" parent="1">
          <mxGeometry x="540" y="2730" width="90" height="30" as="geometry" />
        </mxCell>
        <mxCell id="P5J0pzsNAGjrwa9tXCtl-461" value="&lt;span style=&quot;font-weight: normal&quot;&gt;2460.00€&lt;/span&gt;" style="rounded=0;whiteSpace=wrap;html=1;align=left;fontStyle=1;fillColor=#fff2cc;strokeColor=#d6b656;" vertex="1" parent="1">
          <mxGeometry x="630" y="2730" width="90" height="30" as="geometry" />
        </mxCell>
        <mxCell id="P5J0pzsNAGjrwa9tXCtl-462" value="&lt;span style=&quot;font-weight: 400&quot;&gt;15.05.2021 klo 15:00&lt;/span&gt;" style="rounded=0;whiteSpace=wrap;html=1;align=left;fontStyle=1;fillColor=#fff2cc;strokeColor=#d6b656;" vertex="1" parent="1">
          <mxGeometry x="420" y="2760" width="120" height="30" as="geometry" />
        </mxCell>
        <mxCell id="P5J0pzsNAGjrwa9tXCtl-463" value="&lt;span style=&quot;font-weight: normal&quot;&gt;123&lt;/span&gt;" style="rounded=0;whiteSpace=wrap;html=1;align=left;fontStyle=1;fillColor=#fff2cc;strokeColor=#d6b656;" vertex="1" parent="1">
          <mxGeometry x="540" y="2760" width="90" height="30" as="geometry" />
        </mxCell>
        <mxCell id="P5J0pzsNAGjrwa9tXCtl-464" value="&lt;span style=&quot;font-weight: normal&quot;&gt;2460.00€&lt;/span&gt;" style="rounded=0;whiteSpace=wrap;html=1;align=left;fontStyle=1;fillColor=#fff2cc;strokeColor=#d6b656;" vertex="1" parent="1">
          <mxGeometry x="630" y="2760" width="90" height="30" as="geometry" />
        </mxCell>
        <mxCell id="P5J0pzsNAGjrwa9tXCtl-465" value="&lt;span style=&quot;font-weight: 400&quot;&gt;15.05.2021 klo 15:00&lt;/span&gt;" style="rounded=0;whiteSpace=wrap;html=1;align=left;fontStyle=1;fillColor=#fff2cc;strokeColor=#d6b656;" vertex="1" parent="1">
          <mxGeometry x="420" y="2790" width="120" height="30" as="geometry" />
        </mxCell>
        <mxCell id="P5J0pzsNAGjrwa9tXCtl-466" value="&lt;span style=&quot;font-weight: normal&quot;&gt;123&lt;/span&gt;" style="rounded=0;whiteSpace=wrap;html=1;align=left;fontStyle=1;fillColor=#fff2cc;strokeColor=#d6b656;" vertex="1" parent="1">
          <mxGeometry x="540" y="2790" width="90" height="30" as="geometry" />
        </mxCell>
        <mxCell id="P5J0pzsNAGjrwa9tXCtl-467" value="&lt;span style=&quot;font-weight: normal&quot;&gt;2460.00€&lt;/span&gt;" style="rounded=0;whiteSpace=wrap;html=1;align=left;fontStyle=1;fillColor=#fff2cc;strokeColor=#d6b656;" vertex="1" parent="1">
          <mxGeometry x="630" y="2790" width="90" height="30" as="geometry" />
        </mxCell>
        <mxCell id="P5J0pzsNAGjrwa9tXCtl-468" value="" style="rounded=0;whiteSpace=wrap;html=1;fillColor=#f5f5f5;strokeColor=#666666;fontColor=#333333;" vertex="1" parent="1">
          <mxGeometry x="720" y="2580" width="10" height="240" as="geometry" />
        </mxCell>
        <mxCell id="P5J0pzsNAGjrwa9tXCtl-469" value="" style="rounded=0;whiteSpace=wrap;html=1;fillColor=#4D4D4D;" vertex="1" parent="1">
          <mxGeometry x="720" y="2595" width="10" height="25" as="geometry" />
        </mxCell>
      </root>
    </mxGraphModel>
  </diagram>
</mxfile>
